<?xml version="1.0" encoding="UTF-8"?>
<svg xmlns="http://www.w3.org/2000/svg" style="display:none">
  <!-- Twitter -->
  <symbol id="icon-twitter" viewBox="0 0 24 24">
    <path fill="currentColor" d="M22 5.92c-.63.28-1.3.47-2 .56.72-.43 1.27-1.1 1.53-1.9-.67.4-1.4.7-2.18.86C18.8 4.7 17.86 4 16.76 4c-1.53 0-2.77 1.24-2.77 2.77 0 .22.03.44.08.65C10.6 7.3 7.3 5.6 5.08 3.1c-.24.4-.38.86-.38 1.36 0 .94.48 1.77 1.21 2.26-.56-.02-1.09-.17-1.55-.43v.04c0 1.31.93 2.4 2.17 2.64-.23.06-.47.09-.72.09-.18 0-.36-.02-.53-.05.36 1.13 1.41 1.95 2.65 1.98C7.27 13.9 6.5 14.3 5.64 14.3c-.12 0-.24 0-.36-.02 1.16.74 2.54 1.18 4.03 1.18 4.84 0 7.49-4.01 7.49-7.49v-.34c.52-.37.97-.83 1.33-1.35-.47.21-.97.34-1.49.4z" />
  </symbol>

  <!-- Instagram -->
  <symbol id="icon-instagram" viewBox="0 0 24 24">
    <path fill="currentColor" d="M7 2h10a5 5 0 0 1 5 5v10a5 5 0 0 1-5 5H7a5 5 0 0 1-5-5V7a5 5 0 0 1 5-5zm5 6.2A4.8 4.8 0 1 0 16.8 13 4.8 4.8 0 0 0 12 8.2zm6.5-.8a1.2 1.2 0 1 1-1.2-1.2 1.2 1.2 0 0 1 1.2 1.2zM12 10.5A1.5 1.5 0 1 1 10.5 12 1.5 1.5 0 0 1 12 10.5z" />
  </symbol>

  <!-- YouTube -->
  <symbol id="icon-youtube" viewBox="0 0 24 24">
    <path fill="currentColor" d="M23.5 6.2s-.2-1.7-.8-2.4c-.8-.9-1.7-.9-2.1-1-3-.2-7.5-.2-7.5-.2s-4.5 0-7.5.2c-.4 0-1.3 0-2.1 1C.7 4.5.5 6.2.5 6.2S.2 8 .2 9.8v.4c0 1.9.3 3.6.3 3.6s.2 1.7.8 2.4c.8.9 1.9.9 2.4 1 1.7.1 7.4.2 7.4.2s4.5 0 7.5-.2c.4 0 1.3 0 2.1-1 .6-.7.8-2.4.8-2.4s.3-1.7.3-3.6v-.4c0-1.9-.3-3.6-.3-3.6zM9.8 15.1V8.9l5.6 3.1-5.6 3.1z" />
  </symbol>
</svg>
